<svg width="600" height="295" viewBox="0 0 600 295" fill="none" xmlns="http://www.w3.org/2000/svg">
<path d="M465.825 0L373.816 44.164H442.271L436.382 73.6068L528.391 29.4427H459.936L465.825 0Z" fill="#A60229"/>
<path d="M459.936 176.657L465.825 147.214L373.816 191.378H442.271L436.382 220.821L528.391 176.657H459.936Z" fill="#A60229"/>
<path d="M164.038 0L72.0293 44.164H140.483L134.595 73.6068L226.603 29.4427H158.149L164.038 0Z" fill="#A60229"/>
<path d="M158.149 176.657L164.038 147.214L72.0293 191.378H140.483L134.595 220.821L226.603 176.657H158.149Z" fill="#A60229"/>
<path d="M222.923 264.984H291.377L285.488 294.427L377.497 250.263H309.043L314.931 220.82L222.923 264.984Z" fill="#A60229"/>
<path d="M309.043 103.049L314.931 73.6067L222.923 117.771H291.377L285.488 147.213L377.497 103.049H309.043Z" fill="#A60229"/>
<path d="M524.711 264.984H593.165L587.277 294.427L600 288.328V228.812L524.711 264.984Z" fill="#A60229"/>
<path d="M524.711 117.771H593.165L587.277 147.214L600 141.115V81.5984L524.711 117.771Z" fill="#A60229"/>
<path d="M0 227.129V286.593L75.7096 250.263H7.25555L13.1441 220.82L0 227.129Z" fill="#A60229"/>
<path d="M0 79.9157V139.379L75.7096 103.049H7.25555L13.1441 73.6067L0 79.9157Z" fill="#A60229"/>
</svg>
